HIERARCHY
ROOT hip
{
	OFFSET 0.000000 0.000000 0.000000 
	CHANNELS 6 Xposition Yposition Zposition Xrotation Zrotation Yrotation
	JOINT abdomen
	{
		OFFSET 0.000000 3.402643 0.000000 
		CHANNELS 3 Xrotation Zrotation Yrotation
		JOINT chest
		{
			OFFSET 0.000000 8.438565 -0.680529 
			CHANNELS 3 Xrotation Zrotation Yrotation
			JOINT neck
			{
				OFFSET 0.000000 10.207942 -0.272212 
				CHANNELS 3 Xrotation Zrotation Yrotation
				JOINT head
				{
					OFFSET 0.000000 3.130431 0.000000 
					CHANNELS 3 Xrotation Zrotation Yrotation
					End Site
					{
						OFFSET 0.000000 3.130435 0.000000 
					}
				}
			}
			JOINT lCollar
			{
				OFFSET 3.470700 6.669187 -0.816635 
				CHANNELS 3 Yrotation Zrotation Xrotation
				JOINT lShldr
				{
					OFFSET 3.198488 0.000000 0.000000 
					CHANNELS 3 Zrotation Yrotation Xrotation
					JOINT lForeArm
					{
						OFFSET 10.139888 0.000000 0.000000 
						CHANNELS 3 Yrotation Zrotation Xrotation
						JOINT lHand
						{
							OFFSET 8.370511 0.000000 0.000000 
							CHANNELS 3 Zrotation Yrotation Xrotation
							End Site
							{
								OFFSET 4.083176 0.000000 0.000000 
							}
						}
					}
				}
			}
			JOINT rCollar
			{
				OFFSET -3.470700 6.669187 -0.816635 
				CHANNELS 3 Yrotation Zrotation Xrotation
				JOINT rShldr
				{
					OFFSET -3.198488 0.000000 0.000000 
					CHANNELS 3 Zrotation Yrotation Xrotation
					JOINT rForeArm
					{
						OFFSET -10.139888 0.000000 0.000000 
						CHANNELS 3 Yrotation Zrotation Xrotation
						JOINT rHand
						{
							OFFSET -8.370511 0.000000 0.000000 
							CHANNELS 3 Zrotation Yrotation Xrotation
							End Site
							{
								OFFSET -4.083176 0.000000 0.000000 
							}
						}
					}
				}
			}
		}
	}
	JOINT lThigh
	{
		OFFSET 5.308129 -1.633274 1.361059 
		CHANNELS 3 Xrotation Zrotation Yrotation
		JOINT lShin
		{
			OFFSET -2.041588 -20.007561 0.000000 
			CHANNELS 3 Xrotation Zrotation Yrotation
			JOINT lFoot
			{
				OFFSET 0.000000 -19.190928 -1.224953 
				CHANNELS 3 Xrotation Yrotation Zrotation
				End Site
				{
					OFFSET 0.000000 -2.449906 4.627600 
				}
			}
		}
	}
	JOINT rThigh
	{
		OFFSET -5.308129 -1.633274 1.361059 
		CHANNELS 3 Xrotation Zrotation Yrotation
		JOINT rShin
		{
			OFFSET 2.041588 -20.007561 0.000000 
			CHANNELS 3 Xrotation Zrotation Yrotation
			JOINT rFoot
			{
				OFFSET 0.000000 -19.190928 -1.224953 
				CHANNELS 3 Xrotation Yrotation Zrotation
				End Site
				{
					OFFSET 0.000000 -2.449906 4.627600 
				}
			}
		}
	}
}
MOTION
Frames: 10
Frame Time: 0.033333
-0.105070 49.326851 -44.032333 14.384766 8.173828 3.321701 0.000000 0.000000 0.000000 13.193360 -2.568359 -6.064890 14.873048 -8.134766 -0.235757 -18.974609 -3.642578 6.132191 -12.763671 -16.718750 10.256716 -50.029293 -32.802731 69.154869 -22.412109 9.482422 5.273438 1.308594 3.281250 -13.817800 2.353515 5.478516 11.298828 21.884766 35.605469 62.056469 38.212891 -12.382813 10.341795 -52.031250 -54.970699 -5.273436 -21.547485 2.078962 4.953956 15.403731 -0.879029 -0.710853 -3.803311 -10.074178 -7.235551 -26.283422 -14.040850 7.640180 29.114719 -0.815129 1.272669 -16.694044 -6.496312 5.742097 
-0.072633 49.312538 -44.007423 14.375001 7.998046 3.448625 0.000000 0.000000 0.000000 13.017578 -2.578029 -6.055328 14.716797 -8.310547 -0.234375 -18.798828 -3.818359 5.966796 -12.802734 -16.679688 10.087891 -50.224609 -32.656254 69.140625 -22.587891 9.492188 5.291359 1.679688 3.398438 -14.511719 2.382813 5.468750 11.123049 22.109375 35.810547 62.730324 38.046875 -12.519532 10.431805 -51.953125 -54.716797 -4.597816 -21.565607 2.079101 4.576639 15.589478 -0.891636 -0.701459 -3.961927 -9.918530 -6.987175 -26.059328 -14.031384 7.470663 29.114719 -0.815127 1.272669 -17.067602 -6.436586 5.760764 
-0.045595 49.301403 -43.978931 14.189453 7.841796 3.390004 0.000000 0.000000 0.000000 13.017578 -2.578029 -5.879541 14.697266 -8.134767 -0.225991 -18.974609 -3.642578 5.956410 -12.802734 -16.679688 10.087891 -50.263668 -32.480469 69.135376 -22.763672 9.501954 5.301122 1.679688 3.398438 -14.511719 2.412109 5.449219 10.956103 22.285156 36.005863 63.062378 38.046871 -12.656250 10.371094 -51.708984 -54.648438 -4.072265 -21.389235 2.078964 4.567390 15.755658 -0.891441 -0.709158 -4.104402 -9.521698 -6.836081 -25.945955 -13.876430 7.417599 29.114719 -0.815129 1.272669 -17.090569 -6.403822 5.988257 
-0.019327 49.294800 -43.950066 14.189453 7.841796 3.390004 0.000000 0.000000 0.000000 13.017578 -2.578029 -5.703753 14.326172 -8.154297 -0.029297 -19.150389 -3.642578 6.141958 -12.675782 -16.601564 9.882813 -50.273438 -32.314453 68.959618 -22.763672 9.501954 5.301122 1.279297 3.652344 -13.944689 2.607422 5.478516 10.780317 22.431639 36.191402 63.203129 37.685543 -12.666015 10.322265 -51.142578 -54.785156 -4.218750 -21.391937 2.255243 4.381202 15.931585 -0.891651 -0.717363 -4.412357 -9.095027 -7.088488 -25.677801 -13.669815 7.741821 29.133055 -0.561207 1.003503 -17.086786 -6.424429 5.988671 
0.009013 49.293644 -43.925579 14.189453 7.666016 3.165365 0.000000 0.000000 0.000000 12.841797 -2.578125 -5.342236 14.091797 -8.007812 0.340436 -19.326172 -3.466797 6.142578 -12.324220 -16.523438 9.921876 -50.292969 -32.314453 69.223289 -22.412109 9.482422 5.273438 0.703125 3.662110 -13.046248 2.949219 5.556641 10.791016 22.607422 36.210938 63.365147 37.148438 -12.685546 10.256051 -49.902344 -54.960938 -5.126953 -21.391937 2.255244 4.381202 16.117289 -0.891680 -0.726003 -4.500420 -9.228180 -7.154414 -25.708593 -13.670403 7.928967 28.957001 -0.561102 1.007077 -17.080870 -6.452447 5.961444 
0.038799 49.296101 -43.911655 14.189453 7.666016 3.165365 0.000000 0.000000 0.000000 12.841798 -2.744141 -5.205546 13.886719 -8.027344 0.496695 -19.501953 -3.291016 5.957031 -12.158202 -16.660154 9.905143 -50.361328 -32.304688 69.750633 -21.699219 9.453125 5.214843 0.517578 3.623047 -12.880241 3.291016 5.458984 10.819384 22.636719 36.396484 63.716732 36.250000 -12.705078 10.126952 -48.203125 -55.419918 -7.107648 -21.360126 2.430170 4.377480 16.114071 -0.937536 -0.751037 -4.676820 -8.927126 -7.224049 -25.746843 -13.513708 7.532006 28.947683 -0.737077 1.110688 -17.051670 -6.545081 5.899431 
0.067043 49.296581 -43.912460 14.365233 7.656250 3.369141 0.000000 0.000000 0.000000 12.841797 -2.919922 -5.068857 13.701172 -7.998046 0.546875 -19.677736 -3.291016 5.966796 -11.982421 -16.630859 9.924669 -50.097652 -32.431641 70.483047 -21.171875 9.423828 5.175782 0.361328 3.642574 -13.212258 3.291016 5.458984 10.819384 22.373047 36.562500 64.375008 35.175781 -12.734375 9.992387 -45.468750 -55.927734 -10.478518 -21.569530 2.245783 4.391510 16.117289 -0.891680 -0.726003 -4.663268 -9.238083 -6.985990 -25.907120 -13.671509 7.927896 28.947683 -0.737075 1.110688 -17.006653 -6.823134 6.167025 
0.093069 49.290077 -43.926975 14.541015 7.656250 3.564453 0.000000 0.000000 0.000000 12.841797 -2.919922 -5.068857 13.359374 -8.144532 0.341797 -19.853516 -3.291016 5.800781 -12.031249 -16.757813 9.719612 -50.029297 -32.402344 71.289063 -20.634766 9.404297 5.136718 0.429688 3.408203 -14.130998 3.310547 5.273438 10.654134 21.972658 36.533203 64.900185 33.740234 -12.773438 9.755859 -42.177738 -56.308594 -14.580077 -21.939255 2.089340 4.430223 16.290583 -0.940503 -0.740189 -4.671520 -9.487893 -6.903636 -26.193525 -13.893717 7.952516 29.114719 -0.815129 1.272669 -16.925444 -7.252635 6.117973 
0.119241 49.278942 -43.949245 14.726564 7.822266 3.809923 0.000000 0.000000 0.000000 12.666016 -2.919922 -4.882813 13.173827 -8.339844 0.556641 -20.029297 -3.466797 5.830078 -11.855469 -16.728516 9.739140 -49.746094 -32.529297 71.855469 -20.283203 9.384767 5.105830 0.507813 3.222651 -15.390054 3.486328 5.312500 10.654296 21.406248 36.484375 65.322266 32.500004 -12.939453 9.689686 -38.662109 -56.367188 -19.080395 -22.277702 2.088372 4.641813 16.290920 -0.927793 -0.748362 -4.579860 -9.524098 -6.908260 -26.519505 -14.060975 8.183610 29.281048 -0.815243 1.268357 -17.025284 -7.613447 6.310305 
0.145604 49.270222 -43.971893 15.078126 7.802735 4.034528 0.000000 0.000000 0.000000 12.666016 -3.095703 -4.746094 12.998047 -8.535156 0.750504 -20.205078 -3.642578 5.858755 -11.679688 -16.689453 9.755860 -49.609375 -32.500000 72.133423 -19.931639 9.365234 5.076535 0.605469 2.636719 -16.337561 3.652344 5.351563 10.663152 20.673828 36.250004 65.542885 31.406252 -12.968750 9.367427 -35.468754 -56.435547 -23.378908 -22.650999 1.913289 4.500730 16.290951 -0.940321 -0.730432 -4.831140 -9.673995 -6.788527 -26.666840 -14.227484 8.397211 29.641884 -0.815243 1.289893 -17.338261 -7.855866 6.157876 
